<svg xmlns="http://www.w3.org/2000/svg" viewBox="0 0 24 24" fill="none" stroke="currentColor" stroke-width="2" stroke-linecap="round" stroke-linejoin="round">
  <path d="M2 12.22C2 9.73 3.64 7.34 6.07 6.61C9.07 5.74 12.5 6.7 14.24 9.08C16.07 11.6 18.01 14 21 14C21.82 14 22.5 14.68 22.5 15.5C22.5 16.34 21.82 17 21 17H16.5"></path>
  <path d="M14 21.5C11 21.5 9.5 19.5 8 17.5C6.5 15.5 4 14 2 14"></path>
  <path d="M14.5 10.5C12.96 10.5 11.46 11.12 10.41 12.19C7.79 14.86 7 18.5 7 22"></path>
</svg>
